# Blender 4.4.3
# www.blender.org
mtllib boq_professional_8fad8fae-fecf-49d2-afbd-00502ed26d69.mtl
o Floor_test_living_room
v -11.000000 0.000000 9.000000
v 11.000000 0.000000 9.000000
v -11.000000 0.000000 -9.000000
v 11.000000 0.000000 -9.000000
vn -0.0000 1.0000 -0.0000
vt 1.000000 0.000000
vt 0.000000 1.000000
vt 0.000000 0.000000
vt 1.000000 1.000000
s 0
usemtl OakWood
f 2/1/1 3/2/1 1/3/1
f 2/1/1 4/4/1 3/2/1
o BackWall_test_living_room
v -11.000000 0.000000 -8.900000
v -11.000000 3.000000 -8.900000
v -11.000000 0.000000 -9.100000
v -11.000000 3.000000 -9.100000
v 11.000000 0.000000 -8.900000
v 11.000000 3.000000 -8.900000
v 11.000000 0.000000 -9.100000
v 11.000000 3.000000 -9.100000
vn -1.0000 -0.0000 -0.0000
vn -0.0000 -0.0000 -1.0000
vn 1.0000 -0.0000 -0.0000
vn -0.0000 -0.0000 1.0000
vn -0.0000 -1.0000 -0.0000
vn -0.0000 1.0000 -0.0000
vt 0.625000 0.000000
vt 0.375000 0.250000
vt 0.375000 0.000000
vt 0.625000 0.250000
vt 0.375000 0.500000
vt 0.625000 0.500000
vt 0.375000 0.750000
vt 0.625000 0.750000
vt 0.375000 1.000000
vt 0.125000 0.750000
vt 0.125000 0.500000
vt 0.875000 0.500000
vt 0.625000 1.000000
vt 0.875000 0.750000
s 0
usemtl WarmBeige
f 6/5/2 7/6/2 5/7/2
f 8/8/3 11/9/3 7/6/3
f 12/10/4 9/11/4 11/9/4
f 10/12/5 5/13/5 9/11/5
f 11/9/6 5/14/6 7/15/6
f 8/16/7 10/12/7 12/10/7
f 6/5/2 8/8/2 7/6/2
f 8/8/3 12/10/3 11/9/3
f 12/10/4 10/12/4 9/11/4
f 10/12/5 6/17/5 5/13/5
f 11/9/6 9/11/6 5/14/6
f 8/16/7 6/18/7 10/12/7
o LeftWall_test_living_room
v -11.100000 0.000000 9.000000
v -11.100000 3.000000 9.000000
v -11.100000 0.000000 -9.000000
v -11.100000 3.000000 -9.000000
v -10.900000 0.000000 9.000000
v -10.900000 3.000000 9.000000
v -10.900000 0.000000 -9.000000
v -10.900000 3.000000 -9.000000
vn -1.0000 -0.0000 -0.0000
vn -0.0000 -0.0000 -1.0000
vn 1.0000 -0.0000 -0.0000
vn -0.0000 -0.0000 1.0000
vn -0.0000 -1.0000 -0.0000
vn -0.0000 1.0000 -0.0000
vt 0.625000 0.000000
vt 0.375000 0.250000
vt 0.375000 0.000000
vt 0.625000 0.250000
vt 0.375000 0.500000
vt 0.625000 0.500000
vt 0.375000 0.750000
vt 0.625000 0.750000
vt 0.375000 1.000000
vt 0.125000 0.750000
vt 0.125000 0.500000
vt 0.875000 0.500000
vt 0.625000 1.000000
vt 0.875000 0.750000
s 0
usemtl WarmBeige
f 14/19/8 15/20/8 13/21/8
f 16/22/9 19/23/9 15/20/9
f 20/24/10 17/25/10 19/23/10
f 18/26/11 13/27/11 17/25/11
f 19/23/12 13/28/12 15/29/12
f 16/30/13 18/26/13 20/24/13
f 14/19/8 16/22/8 15/20/8
f 16/22/9 20/24/9 19/23/9
f 20/24/10 18/26/10 17/25/10
f 18/26/11 14/31/11 13/27/11
f 19/23/12 17/25/12 13/28/12
f 16/30/13 14/32/13 18/26/13
o RightWall_test_living_room
v 10.900000 0.000000 9.000000
v 10.900000 3.000000 9.000000
v 10.900000 0.000000 -9.000000
v 10.900000 3.000000 -9.000000
v 11.100000 0.000000 9.000000
v 11.100000 3.000000 9.000000
v 11.100000 0.000000 -9.000000
v 11.100000 3.000000 -9.000000
vn -1.0000 -0.0000 -0.0000
vn -0.0000 -0.0000 -1.0000
vn 1.0000 -0.0000 -0.0000
vn -0.0000 -0.0000 1.0000
vn -0.0000 -1.0000 -0.0000
vn -0.0000 1.0000 -0.0000
vt 0.625000 0.000000
vt 0.375000 0.250000
vt 0.375000 0.000000
vt 0.625000 0.250000
vt 0.375000 0.500000
vt 0.625000 0.500000
vt 0.375000 0.750000
vt 0.625000 0.750000
vt 0.375000 1.000000
vt 0.125000 0.750000
vt 0.125000 0.500000
vt 0.875000 0.500000
vt 0.625000 1.000000
vt 0.875000 0.750000
s 0
usemtl WarmBeige
f 22/33/14 23/34/14 21/35/14
f 24/36/15 27/37/15 23/34/15
f 28/38/16 25/39/16 27/37/16
f 26/40/17 21/41/17 25/39/17
f 27/37/18 21/42/18 23/43/18
f 24/44/19 26/40/19 28/38/19
f 22/33/14 24/36/14 23/34/14
f 24/36/15 28/38/15 27/37/15
f 28/38/16 26/40/16 25/39/16
f 26/40/17 22/45/17 21/41/17
f 27/37/18 25/39/18 21/42/18
f 24/44/19 22/46/19 26/40/19
o FrontWallLeft_test_living_room
v -10.250000 0.000000 9.100000
v -10.250000 3.000000 9.100000
v -10.250000 0.000000 8.900000
v -10.250000 3.000000 8.900000
v -0.750000 0.000000 9.100000
v -0.750000 3.000000 9.100000
v -0.750000 0.000000 8.900000
v -0.750000 3.000000 8.900000
vn -1.0000 -0.0000 -0.0000
vn -0.0000 -0.0000 -1.0000
vn 1.0000 -0.0000 -0.0000
vn -0.0000 -0.0000 1.0000
vn -0.0000 -1.0000 -0.0000
vn -0.0000 1.0000 -0.0000
vt 0.625000 0.000000
vt 0.375000 0.250000
vt 0.375000 0.000000
vt 0.625000 0.250000
vt 0.375000 0.500000
vt 0.625000 0.500000
vt 0.375000 0.750000
vt 0.625000 0.750000
vt 0.375000 1.000000
vt 0.125000 0.750000
vt 0.125000 0.500000
vt 0.875000 0.500000
vt 0.625000 1.000000
vt 0.875000 0.750000
s 0
usemtl WarmBeige
f 30/47/20 31/48/20 29/49/20
f 32/50/21 35/51/21 31/48/21
f 36/52/22 33/53/22 35/51/22
f 34/54/23 29/55/23 33/53/23
f 35/51/24 29/56/24 31/57/24
f 32/58/25 34/54/25 36/52/25
f 30/47/20 32/50/20 31/48/20
f 32/50/21 36/52/21 35/51/21
f 36/52/22 34/54/22 33/53/22
f 34/54/23 30/59/23 29/55/23
f 35/51/24 33/53/24 29/56/24
f 32/58/25 30/60/25 34/54/25
o FrontWallRight_test_living_room
v 0.750000 0.000000 9.100000
v 0.750000 3.000000 9.100000
v 0.750000 0.000000 8.900000
v 0.750000 3.000000 8.900000
v 10.250000 0.000000 9.100000
v 10.250000 3.000000 9.100000
v 10.250000 0.000000 8.900000
v 10.250000 3.000000 8.900000
vn -1.0000 -0.0000 -0.0000
vn -0.0000 -0.0000 -1.0000
vn 1.0000 -0.0000 -0.0000
vn -0.0000 -0.0000 1.0000
vn -0.0000 -1.0000 -0.0000
vn -0.0000 1.0000 -0.0000
vt 0.625000 0.000000
vt 0.375000 0.250000
vt 0.375000 0.000000
vt 0.625000 0.250000
vt 0.375000 0.500000
vt 0.625000 0.500000
vt 0.375000 0.750000
vt 0.625000 0.750000
vt 0.375000 1.000000
vt 0.125000 0.750000
vt 0.125000 0.500000
vt 0.875000 0.500000
vt 0.625000 1.000000
vt 0.875000 0.750000
s 0
usemtl WarmBeige
f 38/61/26 39/62/26 37/63/26
f 40/64/27 43/65/27 39/62/27
f 44/66/28 41/67/28 43/65/28
f 42/68/29 37/69/29 41/67/29
f 43/65/30 37/70/30 39/71/30
f 40/72/31 42/68/31 44/66/31
f 38/61/26 40/64/26 39/62/26
f 40/64/27 44/66/27 43/65/27
f 44/66/28 42/68/28 41/67/28
f 42/68/29 38/73/29 37/69/29
f 43/65/30 41/67/30 37/70/30
f 40/72/31 38/74/31 42/68/31
o SofaBody_test_living_room
v -4.000000 0.000000 2.000000
v -4.000000 2.000000 2.000000
v -4.000000 0.000000 -2.000000
v -4.000000 2.000000 -2.000000
v 4.000000 0.000000 2.000000
v 4.000000 2.000000 2.000000
v 4.000000 0.000000 -2.000000
v 4.000000 2.000000 -2.000000
vn -1.0000 -0.0000 -0.0000
vn -0.0000 -0.0000 -1.0000
vn 1.0000 -0.0000 -0.0000
vn -0.0000 -0.0000 1.0000
vn -0.0000 -1.0000 -0.0000
vn -0.0000 1.0000 -0.0000
vt 0.625000 0.000000
vt 0.375000 0.250000
vt 0.375000 0.000000
vt 0.625000 0.250000
vt 0.375000 0.500000
vt 0.625000 0.500000
vt 0.375000 0.750000
vt 0.625000 0.750000
vt 0.375000 1.000000
vt 0.125000 0.750000
vt 0.125000 0.500000
vt 0.875000 0.500000
vt 0.625000 1.000000
vt 0.875000 0.750000
s 0
usemtl VelvetBlue
f 46/75/32 47/76/32 45/77/32
f 48/78/33 51/79/33 47/76/33
f 52/80/34 49/81/34 51/79/34
f 50/82/35 45/83/35 49/81/35
f 51/79/36 45/84/36 47/85/36
f 48/86/37 50/82/37 52/80/37
f 46/75/32 48/78/32 47/76/32
f 48/78/33 52/80/33 51/79/33
f 52/80/34 50/82/34 49/81/34
f 50/82/35 46/87/35 45/83/35
f 51/79/36 49/81/36 45/84/36
f 48/86/37 46/88/37 50/82/37
o SofaBackrest_test_living_room
v -4.000000 1.000000 -1.000000
v -4.000000 4.000000 -1.000000
v -4.000000 1.000000 -2.000000
v -4.000000 4.000000 -2.000000
v 4.000000 1.000000 -1.000000
v 4.000000 4.000000 -1.000000
v 4.000000 1.000000 -2.000000
v 4.000000 4.000000 -2.000000
vn -1.0000 -0.0000 -0.0000
vn -0.0000 -0.0000 -1.0000
vn 1.0000 -0.0000 -0.0000
vn -0.0000 -0.0000 1.0000
vn -0.0000 -1.0000 -0.0000
vn -0.0000 1.0000 -0.0000
vt 0.625000 0.000000
vt 0.375000 0.250000
vt 0.375000 0.000000
vt 0.625000 0.250000
vt 0.375000 0.500000
vt 0.625000 0.500000
vt 0.375000 0.750000
vt 0.625000 0.750000
vt 0.375000 1.000000
vt 0.125000 0.750000
vt 0.125000 0.500000
vt 0.875000 0.500000
vt 0.625000 1.000000
vt 0.875000 0.750000
s 0
usemtl VelvetBlue
f 54/89/38 55/90/38 53/91/38
f 56/92/39 59/93/39 55/90/39
f 60/94/40 57/95/40 59/93/40
f 58/96/41 53/97/41 57/95/41
f 59/93/42 53/98/42 55/99/42
f 56/100/43 58/96/43 60/94/43
f 54/89/38 56/92/38 55/90/38
f 56/92/39 60/94/39 59/93/39
f 60/94/40 58/96/40 57/95/40
f 58/96/41 54/101/41 53/97/41
f 59/93/42 57/95/42 53/98/42
f 56/100/43 54/102/43 58/96/43
o SofaArmrest1_test_living_room
v -4.000000 1.000000 2.000000
v -4.000000 3.000000 2.000000
v -4.000000 1.000000 -2.000000
v -4.000000 3.000000 -2.000000
v -3.000000 1.000000 2.000000
v -3.000000 3.000000 2.000000
v -3.000000 1.000000 -2.000000
v -3.000000 3.000000 -2.000000
vn -1.0000 -0.0000 -0.0000
vn -0.0000 -0.0000 -1.0000
vn 1.0000 -0.0000 -0.0000
vn -0.0000 -0.0000 1.0000
vn -0.0000 -1.0000 -0.0000
vn -0.0000 1.0000 -0.0000
vt 0.625000 0.000000
vt 0.375000 0.250000
vt 0.375000 0.000000
vt 0.625000 0.250000
vt 0.375000 0.500000
vt 0.625000 0.500000
vt 0.375000 0.750000
vt 0.625000 0.750000
vt 0.375000 1.000000
vt 0.125000 0.750000
vt 0.125000 0.500000
vt 0.875000 0.500000
vt 0.625000 1.000000
vt 0.875000 0.750000
s 0
usemtl VelvetBlue
f 62/103/44 63/104/44 61/105/44
f 64/106/45 67/107/45 63/104/45
f 68/108/46 65/109/46 67/107/46
f 66/110/47 61/111/47 65/109/47
f 67/107/48 61/112/48 63/113/48
f 64/114/49 66/110/49 68/108/49
f 62/103/44 64/106/44 63/104/44
f 64/106/45 68/108/45 67/107/45
f 68/108/46 66/110/46 65/109/46
f 66/110/47 62/115/47 61/111/47
f 67/107/48 65/109/48 61/112/48
f 64/114/49 62/116/49 66/110/49
o SofaArmrest2_test_living_room
v 3.000000 1.000000 2.000000
v 3.000000 3.000000 2.000000
v 3.000000 1.000000 -2.000000
v 3.000000 3.000000 -2.000000
v 4.000000 1.000000 2.000000
v 4.000000 3.000000 2.000000
v 4.000000 1.000000 -2.000000
v 4.000000 3.000000 -2.000000
vn -1.0000 -0.0000 -0.0000
vn -0.0000 -0.0000 -1.0000
vn 1.0000 -0.0000 -0.0000
vn -0.0000 -0.0000 1.0000
vn -0.0000 -1.0000 -0.0000
vn -0.0000 1.0000 -0.0000
vt 0.625000 0.000000
vt 0.375000 0.250000
vt 0.375000 0.000000
vt 0.625000 0.250000
vt 0.375000 0.500000
vt 0.625000 0.500000
vt 0.375000 0.750000
vt 0.625000 0.750000
vt 0.375000 1.000000
vt 0.125000 0.750000
vt 0.125000 0.500000
vt 0.875000 0.500000
vt 0.625000 1.000000
vt 0.875000 0.750000
s 0
usemtl VelvetBlue
f 70/117/50 71/118/50 69/119/50
f 72/120/51 75/121/51 71/118/51
f 76/122/52 73/123/52 75/121/52
f 74/124/53 69/125/53 73/123/53
f 75/121/54 69/126/54 71/127/54
f 72/128/55 74/124/55 76/122/55
f 70/117/50 72/120/50 71/118/50
f 72/120/51 76/122/51 75/121/51
f 76/122/52 74/124/52 73/123/52
f 74/124/53 70/129/53 69/125/53
f 75/121/54 73/123/54 69/126/54
f 72/128/55 70/130/55 74/124/55
o CoffeeTableTop_test_living_room
v -3.000000 0.300000 4.500000
v -3.000000 0.700000 4.500000
v -3.000000 0.300000 1.500000
v -3.000000 0.700000 1.500000
v 3.000000 0.300000 4.500000
v 3.000000 0.700000 4.500000
v 3.000000 0.300000 1.500000
v 3.000000 0.700000 1.500000
vn -1.0000 -0.0000 -0.0000
vn -0.0000 -0.0000 -1.0000
vn 1.0000 -0.0000 -0.0000
vn -0.0000 -0.0000 1.0000
vn -0.0000 -1.0000 -0.0000
vn -0.0000 1.0000 -0.0000
vt 0.625000 0.000000
vt 0.375000 0.250000
vt 0.375000 0.000000
vt 0.625000 0.250000
vt 0.375000 0.500000
vt 0.625000 0.500000
vt 0.375000 0.750000
vt 0.625000 0.750000
vt 0.375000 1.000000
vt 0.125000 0.750000
vt 0.125000 0.500000
vt 0.875000 0.500000
vt 0.625000 1.000000
vt 0.875000 0.750000
s 0
usemtl MarbleWhite
f 78/131/56 79/132/56 77/133/56
f 80/134/57 83/135/57 79/132/57
f 84/136/58 81/137/58 83/135/58
f 82/138/59 77/139/59 81/137/59
f 83/135/60 77/140/60 79/141/60
f 80/142/61 82/138/61 84/136/61
f 78/131/56 80/134/56 79/132/56
f 80/134/57 84/136/57 83/135/57
f 84/136/58 82/138/58 81/137/58
f 82/138/59 78/143/59 77/139/59
f 83/135/60 81/137/60 77/140/60
f 80/142/61 78/144/61 82/138/61
o CoffeeTableLeg0_test_living_room
v -2.700000 -1.100000 4.200000
v -2.700000 0.500000 4.200000
v -2.700000 -1.100000 3.800000
v -2.700000 0.500000 3.800000
v -2.300000 -1.100000 4.200000
v -2.300000 0.500000 4.200000
v -2.300000 -1.100000 3.800000
v -2.300000 0.500000 3.800000
vn -1.0000 -0.0000 -0.0000
vn -0.0000 -0.0000 -1.0000
vn 1.0000 -0.0000 -0.0000
vn -0.0000 -0.0000 1.0000
vn -0.0000 -1.0000 -0.0000
vn -0.0000 1.0000 -0.0000
vt 0.625000 0.000000
vt 0.375000 0.250000
vt 0.375000 0.000000
vt 0.625000 0.250000
vt 0.375000 0.500000
vt 0.625000 0.500000
vt 0.375000 0.750000
vt 0.625000 0.750000
vt 0.375000 1.000000
vt 0.125000 0.750000
vt 0.125000 0.500000
vt 0.875000 0.500000
vt 0.625000 1.000000
vt 0.875000 0.750000
s 0
usemtl StainlessSteel
f 86/145/62 87/146/62 85/147/62
f 88/148/63 91/149/63 87/146/63
f 92/150/64 89/151/64 91/149/64
f 90/152/65 85/153/65 89/151/65
f 91/149/66 85/154/66 87/155/66
f 88/156/67 90/152/67 92/150/67
f 86/145/62 88/148/62 87/146/62
f 88/148/63 92/150/63 91/149/63
f 92/150/64 90/152/64 89/151/64
f 90/152/65 86/157/65 85/153/65
f 91/149/66 89/151/66 85/154/66
f 88/156/67 86/158/67 90/152/67
o CoffeeTableLeg1_test_living_room
v 2.300000 -1.100000 4.200000
v 2.300000 0.500000 4.200000
v 2.300000 -1.100000 3.800000
v 2.300000 0.500000 3.800000
v 2.700000 -1.100000 4.200000
v 2.700000 0.500000 4.200000
v 2.700000 -1.100000 3.800000
v 2.700000 0.500000 3.800000
vn -1.0000 -0.0000 -0.0000
vn -0.0000 -0.0000 -1.0000
vn 1.0000 -0.0000 -0.0000
vn -0.0000 -0.0000 1.0000
vn -0.0000 -1.0000 -0.0000
vn -0.0000 1.0000 -0.0000
vt 0.625000 0.000000
vt 0.375000 0.250000
vt 0.375000 0.000000
vt 0.625000 0.250000
vt 0.375000 0.500000
vt 0.625000 0.500000
vt 0.375000 0.750000
vt 0.625000 0.750000
vt 0.375000 1.000000
vt 0.125000 0.750000
vt 0.125000 0.500000
vt 0.875000 0.500000
vt 0.625000 1.000000
vt 0.875000 0.750000
s 0
usemtl StainlessSteel
f 94/159/68 95/160/68 93/161/68
f 96/162/69 99/163/69 95/160/69
f 100/164/70 97/165/70 99/163/70
f 98/166/71 93/167/71 97/165/71
f 99/163/72 93/168/72 95/169/72
f 96/170/73 98/166/73 100/164/73
f 94/159/68 96/162/68 95/160/68
f 96/162/69 100/164/69 99/163/69
f 100/164/70 98/166/70 97/165/70
f 98/166/71 94/171/71 93/167/71
f 99/163/72 97/165/72 93/168/72
f 96/170/73 94/172/73 98/166/73
o CoffeeTableLeg2_test_living_room
v -2.700000 -1.100000 2.200000
v -2.700000 0.500000 2.200000
v -2.700000 -1.100000 1.800000
v -2.700000 0.500000 1.800000
v -2.300000 -1.100000 2.200000
v -2.300000 0.500000 2.200000
v -2.300000 -1.100000 1.800000
v -2.300000 0.500000 1.800000
vn -1.0000 -0.0000 -0.0000
vn -0.0000 -0.0000 -1.0000
vn 1.0000 -0.0000 -0.0000
vn -0.0000 -0.0000 1.0000
vn -0.0000 -1.0000 -0.0000
vn -0.0000 1.0000 -0.0000
vt 0.625000 0.000000
vt 0.375000 0.250000
vt 0.375000 0.000000
vt 0.625000 0.250000
vt 0.375000 0.500000
vt 0.625000 0.500000
vt 0.375000 0.750000
vt 0.625000 0.750000
vt 0.375000 1.000000
vt 0.125000 0.750000
vt 0.125000 0.500000
vt 0.875000 0.500000
vt 0.625000 1.000000
vt 0.875000 0.750000
s 0
usemtl StainlessSteel
f 102/173/74 103/174/74 101/175/74
f 104/176/75 107/177/75 103/174/75
f 108/178/76 105/179/76 107/177/76
f 106/180/77 101/181/77 105/179/77
f 107/177/78 101/182/78 103/183/78
f 104/184/79 106/180/79 108/178/79
f 102/173/74 104/176/74 103/174/74
f 104/176/75 108/178/75 107/177/75
f 108/178/76 106/180/76 105/179/76
f 106/180/77 102/185/77 101/181/77
f 107/177/78 105/179/78 101/182/78
f 104/184/79 102/186/79 106/180/79
o CoffeeTableLeg3_test_living_room
v 2.300000 -1.100000 2.200000
v 2.300000 0.500000 2.200000
v 2.300000 -1.100000 1.800000
v 2.300000 0.500000 1.800000
v 2.700000 -1.100000 2.200000
v 2.700000 0.500000 2.200000
v 2.700000 -1.100000 1.800000
v 2.700000 0.500000 1.800000
vn -1.0000 -0.0000 -0.0000
vn -0.0000 -0.0000 -1.0000
vn 1.0000 -0.0000 -0.0000
vn -0.0000 -0.0000 1.0000
vn -0.0000 -1.0000 -0.0000
vn -0.0000 1.0000 -0.0000
vt 0.625000 0.000000
vt 0.375000 0.250000
vt 0.375000 0.000000
vt 0.625000 0.250000
vt 0.375000 0.500000
vt 0.625000 0.500000
vt 0.375000 0.750000
vt 0.625000 0.750000
vt 0.375000 1.000000
vt 0.125000 0.750000
vt 0.125000 0.500000
vt 0.875000 0.500000
vt 0.625000 1.000000
vt 0.875000 0.750000
s 0
usemtl StainlessSteel
f 110/187/80 111/188/80 109/189/80
f 112/190/81 115/191/81 111/188/81
f 116/192/82 113/193/82 115/191/82
f 114/194/83 109/195/83 113/193/83
f 115/191/84 109/196/84 111/197/84
f 112/198/85 114/194/85 116/192/85
f 110/187/80 112/190/80 111/188/80
f 112/190/81 116/192/81 115/191/81
f 116/192/82 114/194/82 113/193/82
f 114/194/83 110/199/83 109/195/83
f 115/191/84 113/193/84 109/196/84
f 112/198/85 110/200/85 114/194/85
o TVStand_test_living_room
v -2.000000 0.000000 -7.200000
v -2.000000 2.000000 -7.200000
v -2.000000 0.000000 -8.800000
v -2.000000 2.000000 -8.800000
v 2.000000 0.000000 -7.200000
v 2.000000 2.000000 -7.200000
v 2.000000 0.000000 -8.800000
v 2.000000 2.000000 -8.800000
vn -1.0000 -0.0000 -0.0000
vn -0.0000 -0.0000 -1.0000
vn 1.0000 -0.0000 -0.0000
vn -0.0000 -0.0000 1.0000
vn -0.0000 -1.0000 -0.0000
vn -0.0000 1.0000 -0.0000
vt 0.625000 0.000000
vt 0.375000 0.250000
vt 0.375000 0.000000
vt 0.625000 0.250000
vt 0.375000 0.500000
vt 0.625000 0.500000
vt 0.375000 0.750000
vt 0.625000 0.750000
vt 0.375000 1.000000
vt 0.125000 0.750000
vt 0.125000 0.500000
vt 0.875000 0.500000
vt 0.625000 1.000000
vt 0.875000 0.750000
s 0
usemtl GraniteBlack
f 118/201/86 119/202/86 117/203/86
f 120/204/87 123/205/87 119/202/87
f 124/206/88 121/207/88 123/205/88
f 122/208/89 117/209/89 121/207/89
f 123/205/90 117/210/90 119/211/90
f 120/212/91 122/208/91 124/206/91
f 118/201/86 120/204/86 119/202/86
f 120/204/87 124/206/87 123/205/87
f 124/206/88 122/208/88 121/207/88
f 122/208/89 118/213/89 117/209/89
f 123/205/90 121/207/90 117/210/90
f 120/212/91 118/214/91 122/208/91
o TVScreen_test_living_room
v -1.800000 1.300000 -8.799999
v -1.800000 3.700000 -8.799999
v -1.800000 1.300000 -9.000000
v -1.800000 3.700000 -9.000000
v 1.800000 1.300000 -8.799999
v 1.800000 3.700000 -8.799999
v 1.800000 1.300000 -9.000000
v 1.800000 3.700000 -9.000000
vn -1.0000 -0.0000 -0.0000
vn -0.0000 -0.0000 -1.0000
vn 1.0000 -0.0000 -0.0000
vn -0.0000 -0.0000 1.0000
vn -0.0000 -1.0000 -0.0000
vn -0.0000 1.0000 -0.0000
vt 0.625000 0.000000
vt 0.375000 0.250000
vt 0.375000 0.000000
vt 0.625000 0.250000
vt 0.375000 0.500000
vt 0.625000 0.500000
vt 0.375000 0.750000
vt 0.625000 0.750000
vt 0.375000 1.000000
vt 0.125000 0.750000
vt 0.125000 0.500000
vt 0.875000 0.500000
vt 0.625000 1.000000
vt 0.875000 0.750000
s 0
usemtl ClearGlass
f 126/215/92 127/216/92 125/217/92
f 128/218/93 131/219/93 127/216/93
f 132/220/94 129/221/94 131/219/94
f 130/222/95 125/223/95 129/221/95
f 131/219/96 125/224/96 127/225/96
f 128/226/97 130/222/97 132/220/97
f 126/215/92 128/218/92 127/216/92
f 128/218/93 132/220/93 131/219/93
f 132/220/94 130/222/94 129/221/94
f 130/222/95 126/227/95 125/223/95
f 131/219/96 129/221/96 125/224/96
f 128/226/97 126/228/97 130/222/97
