# Blender 4.4.3
# www.blender.org
mtllib boq_professional_4464f0aa-cd90-427a-ba37-3ba63562f03f.mtl
o Foundation
v 7.500000 0.000000 -6.250000
v 22.500000 0.000000 -6.250000
v 7.500000 0.000000 -18.750000
v 22.500000 0.000000 -18.750000
vn -0.0000 1.0000 -0.0000
vt 1.000000 0.000000
vt 0.000000 1.000000
vt 0.000000 0.000000
vt 1.000000 1.000000
s 0
usemtl Concrete
f 2/1/1 3/2/1 1/3/1
f 2/1/1 4/4/1 3/2/1
o ExteriorWall_North
v 0.000000 0.000000 -24.850000
v 0.000000 3.000000 -24.850000
v 0.000000 0.000000 -25.150000
v 0.000000 3.000000 -25.150000
v 30.000000 0.000000 -24.850000
v 30.000000 3.000000 -24.850000
v 30.000000 0.000000 -25.150000
v 30.000000 3.000000 -25.150000
vn -1.0000 -0.0000 -0.0000
vn -0.0000 -0.0000 -1.0000
vn 1.0000 -0.0000 -0.0000
vn -0.0000 -0.0000 1.0000
vn -0.0000 -1.0000 -0.0000
vn -0.0000 1.0000 -0.0000
vt 0.625000 0.000000
vt 0.375000 0.250000
vt 0.375000 0.000000
vt 0.625000 0.250000
vt 0.375000 0.500000
vt 0.625000 0.500000
vt 0.375000 0.750000
vt 0.625000 0.750000
vt 0.375000 1.000000
vt 0.125000 0.750000
vt 0.125000 0.500000
vt 0.875000 0.500000
vt 0.625000 1.000000
vt 0.875000 0.750000
s 0
usemtl WallPaint
f 6/5/2 7/6/2 5/7/2
f 8/8/3 11/9/3 7/6/3
f 12/10/4 9/11/4 11/9/4
f 10/12/5 5/13/5 9/11/5
f 11/9/6 5/14/6 7/15/6
f 8/16/7 10/12/7 12/10/7
f 6/5/2 8/8/2 7/6/2
f 8/8/3 12/10/3 11/9/3
f 12/10/4 10/12/4 9/11/4
f 10/12/5 6/17/5 5/13/5
f 11/9/6 9/11/6 5/14/6
f 8/16/7 6/18/7 10/12/7
o ExteriorWall_South
v 0.000000 0.000000 0.150000
v 0.000000 3.000000 0.150000
v 0.000000 0.000000 -0.150000
v 0.000000 3.000000 -0.150000
v 30.000000 0.000000 0.150000
v 30.000000 3.000000 0.150000
v 30.000000 0.000000 -0.150000
v 30.000000 3.000000 -0.150000
vn -1.0000 -0.0000 -0.0000
vn -0.0000 -0.0000 -1.0000
vn 1.0000 -0.0000 -0.0000
vn -0.0000 -0.0000 1.0000
vn -0.0000 -1.0000 -0.0000
vn -0.0000 1.0000 -0.0000
vt 0.625000 0.000000
vt 0.375000 0.250000
vt 0.375000 0.000000
vt 0.625000 0.250000
vt 0.375000 0.500000
vt 0.625000 0.500000
vt 0.375000 0.750000
vt 0.625000 0.750000
vt 0.375000 1.000000
vt 0.125000 0.750000
vt 0.125000 0.500000
vt 0.875000 0.500000
vt 0.625000 1.000000
vt 0.875000 0.750000
s 0
usemtl WallPaint
f 14/19/8 15/20/8 13/21/8
f 16/22/9 19/23/9 15/20/9
f 20/24/10 17/25/10 19/23/10
f 18/26/11 13/27/11 17/25/11
f 19/23/12 13/28/12 15/29/12
f 16/30/13 18/26/13 20/24/13
f 14/19/8 16/22/8 15/20/8
f 16/22/9 20/24/9 19/23/9
f 20/24/10 18/26/10 17/25/10
f 18/26/11 14/31/11 13/27/11
f 19/23/12 17/25/12 13/28/12
f 16/30/13 14/32/13 18/26/13
o ExteriorWall_East
v 29.850000 0.000000 0.000000
v 29.850000 3.000000 0.000000
v 29.850000 0.000000 -25.000000
v 29.850000 3.000000 -25.000000
v 30.150000 0.000000 0.000000
v 30.150000 3.000000 0.000000
v 30.150000 0.000000 -25.000000
v 30.150000 3.000000 -25.000000
vn -1.0000 -0.0000 -0.0000
vn -0.0000 -0.0000 -1.0000
vn 1.0000 -0.0000 -0.0000
vn -0.0000 -0.0000 1.0000
vn -0.0000 -1.0000 -0.0000
vn -0.0000 1.0000 -0.0000
vt 0.625000 0.000000
vt 0.375000 0.250000
vt 0.375000 0.000000
vt 0.625000 0.250000
vt 0.375000 0.500000
vt 0.625000 0.500000
vt 0.375000 0.750000
vt 0.625000 0.750000
vt 0.375000 1.000000
vt 0.125000 0.750000
vt 0.125000 0.500000
vt 0.875000 0.500000
vt 0.625000 1.000000
vt 0.875000 0.750000
s 0
usemtl WallPaint
f 22/33/14 23/34/14 21/35/14
f 24/36/15 27/37/15 23/34/15
f 28/38/16 25/39/16 27/37/16
f 26/40/17 21/41/17 25/39/17
f 27/37/18 21/42/18 23/43/18
f 24/44/19 26/40/19 28/38/19
f 22/33/14 24/36/14 23/34/14
f 24/36/15 28/38/15 27/37/15
f 28/38/16 26/40/16 25/39/16
f 26/40/17 22/45/17 21/41/17
f 27/37/18 25/39/18 21/42/18
f 24/44/19 22/46/19 26/40/19
o ExteriorWall_West
v -0.150000 0.000000 0.000000
v -0.150000 3.000000 0.000000
v -0.150000 0.000000 -25.000000
v -0.150000 3.000000 -25.000000
v 0.150000 0.000000 0.000000
v 0.150000 3.000000 0.000000
v 0.150000 0.000000 -25.000000
v 0.150000 3.000000 -25.000000
vn -1.0000 -0.0000 -0.0000
vn -0.0000 -0.0000 -1.0000
vn 1.0000 -0.0000 -0.0000
vn -0.0000 -0.0000 1.0000
vn -0.0000 -1.0000 -0.0000
vn -0.0000 1.0000 -0.0000
vt 0.625000 0.000000
vt 0.375000 0.250000
vt 0.375000 0.000000
vt 0.625000 0.250000
vt 0.375000 0.500000
vt 0.625000 0.500000
vt 0.375000 0.750000
vt 0.625000 0.750000
vt 0.375000 1.000000
vt 0.125000 0.750000
vt 0.125000 0.500000
vt 0.875000 0.500000
vt 0.625000 1.000000
vt 0.875000 0.750000
s 0
usemtl WallPaint
f 30/47/20 31/48/20 29/49/20
f 32/50/21 35/51/21 31/48/21
f 36/52/22 33/53/22 35/51/22
f 34/54/23 29/55/23 33/53/23
f 35/51/24 29/56/24 31/57/24
f 32/58/25 34/54/25 36/52/25
f 30/47/20 32/50/20 31/48/20
f 32/50/21 36/52/21 35/51/21
f 36/52/22 34/54/22 33/53/22
f 34/54/23 30/59/23 29/55/23
f 35/51/24 33/53/24 29/56/24
f 32/58/25 30/60/25 34/54/25
o Floor_Living_Room
v 6.000000 0.050000 -4.750000
v 16.000000 0.050000 -4.750000
v 6.000000 0.050000 -12.250000
v 16.000000 0.050000 -12.250000
vn -0.0000 1.0000 -0.0000
vt 1.000000 0.000000
vt 0.000000 1.000000
vt 0.000000 0.000000
vt 1.000000 1.000000
s 0
usemtl FloorWood
f 38/61/26 39/62/26 37/63/26
f 38/61/26 40/64/26 39/62/26
o Sofa_Living_Room
v 1.000000 0.000000 -3.250000
v 1.000000 1.000000 -3.250000
v 1.000000 0.000000 -7.750000
v 1.000000 1.000000 -7.750000
v 13.000000 0.000000 -3.250000
v 13.000000 1.000000 -3.250000
v 13.000000 0.000000 -7.750000
v 13.000000 1.000000 -7.750000
vn -1.0000 -0.0000 -0.0000
vn -0.0000 -0.0000 -1.0000
vn 1.0000 -0.0000 -0.0000
vn -0.0000 -0.0000 1.0000
vn -0.0000 -1.0000 -0.0000
vn -0.0000 1.0000 -0.0000
vt 0.625000 0.000000
vt 0.375000 0.250000
vt 0.375000 0.000000
vt 0.625000 0.250000
vt 0.375000 0.500000
vt 0.625000 0.500000
vt 0.375000 0.750000
vt 0.625000 0.750000
vt 0.375000 1.000000
vt 0.125000 0.750000
vt 0.125000 0.500000
vt 0.875000 0.500000
vt 0.625000 1.000000
vt 0.875000 0.750000
s 0
usemtl FabricBlue
f 42/65/27 43/66/27 41/67/27
f 44/68/28 47/69/28 43/66/28
f 48/70/29 45/71/29 47/69/29
f 46/72/30 41/73/30 45/71/30
f 47/69/31 41/74/31 43/75/31
f 44/76/32 46/72/32 48/70/32
f 42/65/27 44/68/27 43/66/27
f 44/68/28 48/70/28 47/69/28
f 48/70/29 46/72/29 45/71/29
f 46/72/30 42/77/30 41/73/30
f 47/69/31 45/71/31 41/74/31
f 44/76/32 42/78/32 46/72/32
o CoffeeTable_Living_Room
v 9.000000 0.000000 -6.250000
v 9.000000 0.800000 -6.250000
v 9.000000 0.000000 -10.750000
v 9.000000 0.800000 -10.750000
v 17.000000 0.000000 -6.250000
v 17.000000 0.800000 -6.250000
v 17.000000 0.000000 -10.750000
v 17.000000 0.800000 -10.750000
vn -1.0000 -0.0000 -0.0000
vn -0.0000 -0.0000 -1.0000
vn 1.0000 -0.0000 -0.0000
vn -0.0000 -0.0000 1.0000
vn -0.0000 -1.0000 -0.0000
vn -0.0000 1.0000 -0.0000
vt 0.625000 0.000000
vt 0.375000 0.250000
vt 0.375000 0.000000
vt 0.625000 0.250000
vt 0.375000 0.500000
vt 0.625000 0.500000
vt 0.375000 0.750000
vt 0.625000 0.750000
vt 0.375000 1.000000
vt 0.125000 0.750000
vt 0.125000 0.500000
vt 0.875000 0.500000
vt 0.625000 1.000000
vt 0.875000 0.750000
s 0
usemtl FurnitureWood
f 50/79/33 51/80/33 49/81/33
f 52/82/34 55/83/34 51/80/34
f 56/84/35 53/85/35 55/83/35
f 54/86/36 49/87/36 53/85/36
f 55/83/37 49/88/37 51/89/37
f 52/90/38 54/86/38 56/84/38
f 50/79/33 52/82/33 51/80/33
f 52/82/34 56/84/34 55/83/34
f 56/84/35 54/86/35 53/85/35
f 54/86/36 50/91/36 49/87/36
f 55/83/37 53/85/37 49/88/37
f 52/90/38 50/92/38 54/86/38
