# Blender 4.4.3
# www.blender.org
mtllib boq_professional_d0792f37-ff30-4ab0-96bc-85b38134dc13.mtl
o Foundation
v 7.500000 0.000000 -12.765746
v 22.500000 0.000000 -12.765746
v 7.500000 0.000000 -38.297237
v 22.500000 0.000000 -38.297237
vn -0.0000 1.0000 -0.0000
vt 1.000000 0.000000
vt 0.000000 1.000000
vt 0.000000 0.000000
vt 1.000000 1.000000
s 0
usemtl Concrete
f 2/1/1 3/2/1 1/3/1
f 2/1/1 4/4/1 3/2/1
o ExteriorWall_North
v 0.000000 0.000000 -50.912983
v 0.000000 3.000000 -50.912983
v 0.000000 0.000000 -51.212986
v 0.000000 3.000000 -51.212986
v 30.000000 0.000000 -50.912983
v 30.000000 3.000000 -50.912983
v 30.000000 0.000000 -51.212986
v 30.000000 3.000000 -51.212986
vn -1.0000 -0.0000 -0.0000
vn -0.0000 -0.0000 -1.0000
vn 1.0000 -0.0000 -0.0000
vn -0.0000 -0.0000 1.0000
vn -0.0000 -1.0000 -0.0000
vn -0.0000 1.0000 -0.0000
vt 0.625000 0.000000
vt 0.375000 0.250000
vt 0.375000 0.000000
vt 0.625000 0.250000
vt 0.375000 0.500000
vt 0.625000 0.500000
vt 0.375000 0.750000
vt 0.625000 0.750000
vt 0.375000 1.000000
vt 0.125000 0.750000
vt 0.125000 0.500000
vt 0.875000 0.500000
vt 0.625000 1.000000
vt 0.875000 0.750000
s 0
usemtl WallPaint
f 6/5/2 7/6/2 5/7/2
f 8/8/3 11/9/3 7/6/3
f 12/10/4 9/11/4 11/9/4
f 10/12/5 5/13/5 9/11/5
f 11/9/6 5/14/6 7/15/6
f 8/16/7 10/12/7 12/10/7
f 6/5/2 8/8/2 7/6/2
f 8/8/3 12/10/3 11/9/3
f 12/10/4 10/12/4 9/11/4
f 10/12/5 6/17/5 5/13/5
f 11/9/6 9/11/6 5/14/6
f 8/16/7 6/18/7 10/12/7
o ExteriorWall_South
v 0.000000 0.000000 0.150000
v 0.000000 3.000000 0.150000
v 0.000000 0.000000 -0.150000
v 0.000000 3.000000 -0.150000
v 30.000000 0.000000 0.150000
v 30.000000 3.000000 0.150000
v 30.000000 0.000000 -0.150000
v 30.000000 3.000000 -0.150000
vn -1.0000 -0.0000 -0.0000
vn -0.0000 -0.0000 -1.0000
vn 1.0000 -0.0000 -0.0000
vn -0.0000 -0.0000 1.0000
vn -0.0000 -1.0000 -0.0000
vn -0.0000 1.0000 -0.0000
vt 0.625000 0.000000
vt 0.375000 0.250000
vt 0.375000 0.000000
vt 0.625000 0.250000
vt 0.375000 0.500000
vt 0.625000 0.500000
vt 0.375000 0.750000
vt 0.625000 0.750000
vt 0.375000 1.000000
vt 0.125000 0.750000
vt 0.125000 0.500000
vt 0.875000 0.500000
vt 0.625000 1.000000
vt 0.875000 0.750000
s 0
usemtl WallPaint
f 14/19/8 15/20/8 13/21/8
f 16/22/9 19/23/9 15/20/9
f 20/24/10 17/25/10 19/23/10
f 18/26/11 13/27/11 17/25/11
f 19/23/12 13/28/12 15/29/12
f 16/30/13 18/26/13 20/24/13
f 14/19/8 16/22/8 15/20/8
f 16/22/9 20/24/9 19/23/9
f 20/24/10 18/26/10 17/25/10
f 18/26/11 14/31/11 13/27/11
f 19/23/12 17/25/12 13/28/12
f 16/30/13 14/32/13 18/26/13
o ExteriorWall_East
v 29.850000 0.000000 0.000000
v 29.850000 3.000000 0.000000
v 29.850000 0.000000 -51.062984
v 29.850000 3.000000 -51.062984
v 30.150000 0.000000 0.000000
v 30.150000 3.000000 0.000000
v 30.150000 0.000000 -51.062984
v 30.150000 3.000000 -51.062984
vn -1.0000 -0.0000 -0.0000
vn -0.0000 -0.0000 -1.0000
vn 1.0000 -0.0000 -0.0000
vn -0.0000 -0.0000 1.0000
vn -0.0000 -1.0000 -0.0000
vn -0.0000 1.0000 -0.0000
vt 0.625000 0.000000
vt 0.375000 0.250000
vt 0.375000 0.000000
vt 0.625000 0.250000
vt 0.375000 0.500000
vt 0.625000 0.500000
vt 0.375000 0.750000
vt 0.625000 0.750000
vt 0.375000 1.000000
vt 0.125000 0.750000
vt 0.125000 0.500000
vt 0.875000 0.500000
vt 0.625000 1.000000
vt 0.875000 0.750000
s 0
usemtl WallPaint
f 22/33/14 23/34/14 21/35/14
f 24/36/15 27/37/15 23/34/15
f 28/38/16 25/39/16 27/37/16
f 26/40/17 21/41/17 25/39/17
f 27/37/18 21/42/18 23/43/18
f 24/44/19 26/40/19 28/38/19
f 22/33/14 24/36/14 23/34/14
f 24/36/15 28/38/15 27/37/15
f 28/38/16 26/40/16 25/39/16
f 26/40/17 22/45/17 21/41/17
f 27/37/18 25/39/18 21/42/18
f 24/44/19 22/46/19 26/40/19
o ExteriorWall_West
v -0.150000 0.000000 0.000000
v -0.150000 3.000000 0.000000
v -0.150000 0.000000 -51.062984
v -0.150000 3.000000 -51.062984
v 0.150000 0.000000 0.000000
v 0.150000 3.000000 0.000000
v 0.150000 0.000000 -51.062984
v 0.150000 3.000000 -51.062984
vn -1.0000 -0.0000 -0.0000
vn -0.0000 -0.0000 -1.0000
vn 1.0000 -0.0000 -0.0000
vn -0.0000 -0.0000 1.0000
vn -0.0000 -1.0000 -0.0000
vn -0.0000 1.0000 -0.0000
vt 0.625000 0.000000
vt 0.375000 0.250000
vt 0.375000 0.000000
vt 0.625000 0.250000
vt 0.375000 0.500000
vt 0.625000 0.500000
vt 0.375000 0.750000
vt 0.625000 0.750000
vt 0.375000 1.000000
vt 0.125000 0.750000
vt 0.125000 0.500000
vt 0.875000 0.500000
vt 0.625000 1.000000
vt 0.875000 0.750000
s 0
usemtl WallPaint
f 30/47/20 31/48/20 29/49/20
f 32/50/21 35/51/21 31/48/21
f 36/52/22 33/53/22 35/51/22
f 34/54/23 29/55/23 33/53/23
f 35/51/24 29/56/24 31/57/24
f 32/58/25 34/54/25 36/52/25
f 30/47/20 32/50/20 31/48/20
f 32/50/21 36/52/21 35/51/21
f 36/52/22 34/54/22 33/53/22
f 34/54/23 30/59/23 29/55/23
f 35/51/24 33/53/24 29/56/24
f 32/58/25 30/60/25 34/54/25
o Floor_Living_Room_1
v 4.568658 0.050000 -4.568658
v 11.705974 0.050000 -4.568658
v 4.568658 0.050000 -11.705974
v 11.705974 0.050000 -11.705974
vn -0.0000 1.0000 -0.0000
vt 1.000000 0.000000
vt 0.000000 1.000000
vt 0.000000 0.000000
vt 1.000000 1.000000
s 0
usemtl FloorWood
f 38/61/26 39/62/26 37/63/26
f 38/61/26 40/64/26 39/62/26
o Sofa_Living_Room_1
v 1.000000 0.000000 -3.141195
v 1.000000 1.000000 -3.141195
v 1.000000 0.000000 -7.423584
v 1.000000 1.000000 -7.423584
v 9.564779 0.000000 -3.141195
v 9.564779 1.000000 -3.141195
v 9.564779 0.000000 -7.423584
v 9.564779 1.000000 -7.423584
vn -1.0000 -0.0000 -0.0000
vn -0.0000 -0.0000 -1.0000
vn 1.0000 -0.0000 -0.0000
vn -0.0000 -0.0000 1.0000
vn -0.0000 -1.0000 -0.0000
vn -0.0000 1.0000 -0.0000
vt 0.625000 0.000000
vt 0.375000 0.250000
vt 0.375000 0.000000
vt 0.625000 0.250000
vt 0.375000 0.500000
vt 0.625000 0.500000
vt 0.375000 0.750000
vt 0.625000 0.750000
vt 0.375000 1.000000
vt 0.125000 0.750000
vt 0.125000 0.500000
vt 0.875000 0.500000
vt 0.625000 1.000000
vt 0.875000 0.750000
s 0
usemtl FabricBlue
f 42/65/27 43/66/27 41/67/27
f 44/68/28 47/69/28 43/66/28
f 48/70/29 45/71/29 47/69/29
f 46/72/30 41/73/30 45/71/30
f 47/69/31 41/74/31 43/75/31
f 44/76/32 46/72/32 48/70/32
f 42/65/27 44/68/27 43/66/27
f 44/68/28 48/70/28 47/69/28
f 48/70/29 46/72/29 45/71/29
f 46/72/30 42/77/30 41/73/30
f 47/69/31 45/71/31 41/74/31
f 44/76/32 42/78/32 46/72/32
o CoffeeTable_Living_Room_1
v 6.709853 0.000000 -5.996121
v 6.709853 0.800000 -5.996121
v 6.709853 0.000000 -10.278511
v 6.709853 0.800000 -10.278511
v 12.419705 0.000000 -5.996121
v 12.419705 0.800000 -5.996121
v 12.419705 0.000000 -10.278511
v 12.419705 0.800000 -10.278511
vn -1.0000 -0.0000 -0.0000
vn -0.0000 -0.0000 -1.0000
vn 1.0000 -0.0000 -0.0000
vn -0.0000 -0.0000 1.0000
vn -0.0000 -1.0000 -0.0000
vn -0.0000 1.0000 -0.0000
vt 0.625000 0.000000
vt 0.375000 0.250000
vt 0.375000 0.000000
vt 0.625000 0.250000
vt 0.375000 0.500000
vt 0.625000 0.500000
vt 0.375000 0.750000
vt 0.625000 0.750000
vt 0.375000 1.000000
vt 0.125000 0.750000
vt 0.125000 0.500000
vt 0.875000 0.500000
vt 0.625000 1.000000
vt 0.875000 0.750000
s 0
usemtl FurnitureWood
f 50/79/33 51/80/33 49/81/33
f 52/82/34 55/83/34 51/80/34
f 56/84/35 53/85/35 55/83/35
f 54/86/36 49/87/36 53/85/36
f 55/83/37 49/88/37 51/89/37
f 52/90/38 54/86/38 56/84/38
f 50/79/33 52/82/33 51/80/33
f 52/82/34 56/84/34 55/83/34
f 56/84/35 54/86/35 53/85/35
f 54/86/36 50/91/36 49/87/36
f 55/83/37 53/85/37 49/88/37
f 52/90/38 50/92/38 54/86/38
o Floor_Kitchen_1
v 18.653738 0.050000 -4.568658
v 23.411947 0.050000 -4.568658
v 18.653738 0.050000 -11.705974
v 23.411947 0.050000 -11.705974
vn -0.0000 1.0000 -0.0000
vt 1.000000 0.000000
vt 0.000000 1.000000
vt 0.000000 0.000000
vt 1.000000 1.000000
s 0
usemtl CeramicWhite
f 58/93/39 59/94/39 57/95/39
f 58/93/39 60/96/39 59/94/39
o Counter_Kitchen_1
v 20.081200 0.000000 -5.996121
v 20.081200 1.800000 -5.996121
v 20.081200 0.000000 -10.278511
v 20.081200 1.800000 -10.278511
v 25.791054 0.000000 -5.996121
v 25.791054 1.800000 -5.996121
v 25.791054 0.000000 -10.278511
v 25.791054 1.800000 -10.278511
vn -1.0000 -0.0000 -0.0000
vn -0.0000 -0.0000 -1.0000
vn 1.0000 -0.0000 -0.0000
vn -0.0000 -0.0000 1.0000
vn -0.0000 -1.0000 -0.0000
vn -0.0000 1.0000 -0.0000
vt 0.625000 0.000000
vt 0.375000 0.250000
vt 0.375000 0.000000
vt 0.625000 0.250000
vt 0.375000 0.500000
vt 0.625000 0.500000
vt 0.375000 0.750000
vt 0.625000 0.750000
vt 0.375000 1.000000
vt 0.125000 0.750000
vt 0.125000 0.500000
vt 0.875000 0.500000
vt 0.625000 1.000000
vt 0.875000 0.750000
s 0
usemtl KitchenCounter
f 62/97/40 63/98/40 61/99/40
f 64/100/41 67/101/41 63/98/41
f 68/102/42 65/103/42 67/101/42
f 66/104/43 61/105/43 65/103/43
f 67/101/44 61/106/44 63/107/44
f 64/108/45 66/104/45 68/102/45
f 62/97/40 64/100/40 63/98/40
f 64/100/41 68/102/41 67/101/41
f 68/102/42 66/104/42 65/103/42
f 66/104/43 62/109/43 61/105/43
f 67/101/44 65/103/44 61/106/44
f 64/108/45 62/110/45 66/104/45
o Fridge_Kitchen_1
v 17.035946 0.000000 -9.279286
v 17.035946 2.000000 -9.279286
v 17.035946 0.000000 -12.705197
v 17.035946 2.000000 -12.705197
v 19.319885 0.000000 -9.279286
v 19.319885 2.000000 -9.279286
v 19.319885 0.000000 -12.705197
v 19.319885 2.000000 -12.705197
vn -1.0000 -0.0000 -0.0000
vn -0.0000 -0.0000 -1.0000
vn 1.0000 -0.0000 -0.0000
vn -0.0000 -0.0000 1.0000
vn -0.0000 -1.0000 -0.0000
vn -0.0000 1.0000 -0.0000
vt 0.625000 0.000000
vt 0.375000 0.250000
vt 0.375000 0.000000
vt 0.625000 0.250000
vt 0.375000 0.500000
vt 0.625000 0.500000
vt 0.375000 0.750000
vt 0.625000 0.750000
vt 0.375000 1.000000
vt 0.125000 0.750000
vt 0.125000 0.500000
vt 0.875000 0.500000
vt 0.625000 1.000000
vt 0.875000 0.750000
s 0
usemtl MetalSteel
f 70/111/46 71/112/46 69/113/46
f 72/114/47 75/115/47 71/112/47
f 76/116/48 73/117/48 75/115/48
f 74/118/49 69/119/49 73/117/49
f 75/115/50 69/120/50 71/121/50
f 72/122/51 74/118/51 76/116/51
f 70/111/46 72/114/46 71/112/46
f 72/114/47 76/116/47 75/115/47
f 76/116/48 74/118/48 73/117/48
f 74/118/49 70/123/49 69/119/49
f 75/115/50 73/117/50 69/120/50
f 72/122/51 70/124/51 74/118/51
o Floor_Bedroom_1
v 3.973881 0.050000 -19.248514
v 9.921644 0.050000 -19.248514
v 3.973881 0.050000 -25.196276
v 9.921644 0.050000 -25.196276
vn -0.0000 1.0000 -0.0000
vt 1.000000 0.000000
vt 0.000000 1.000000
vt 0.000000 0.000000
vt 1.000000 1.000000
s 0
usemtl FloorWood
f 78/125/52 79/126/52 77/127/52
f 78/125/52 80/128/52 79/126/52
o Bed_Bedroom_1
v 2.189552 0.000000 -16.274632
v 2.189552 1.000000 -16.274632
v 2.189552 0.000000 -23.411949
v 2.189552 1.000000 -23.411949
v 11.705974 0.000000 -16.274632
v 11.705974 1.000000 -16.274632
v 11.705974 0.000000 -23.411949
v 11.705974 1.000000 -23.411949
vn -1.0000 -0.0000 -0.0000
vn -0.0000 -0.0000 -1.0000
vn 1.0000 -0.0000 -0.0000
vn -0.0000 -0.0000 1.0000
vn -0.0000 -1.0000 -0.0000
vn -0.0000 1.0000 -0.0000
vt 0.625000 0.000000
vt 0.375000 0.250000
vt 0.375000 0.000000
vt 0.625000 0.250000
vt 0.375000 0.500000
vt 0.625000 0.500000
vt 0.375000 0.750000
vt 0.625000 0.750000
vt 0.375000 1.000000
vt 0.125000 0.750000
vt 0.125000 0.500000
vt 0.875000 0.500000
vt 0.625000 1.000000
vt 0.875000 0.750000
s 0
usemtl FabricBlue
f 82/129/53 83/130/53 81/131/53
f 84/132/54 87/133/54 83/130/54
f 88/134/55 85/135/55 87/133/55
f 86/136/56 81/137/56 85/135/56
f 87/133/57 81/138/57 83/139/57
f 84/140/58 86/136/58 88/134/58
f 82/129/53 84/132/53 83/130/53
f 84/132/54 88/134/54 87/133/54
f 88/134/55 86/136/55 85/135/55
f 86/136/56 82/141/56 81/137/56
f 87/133/57 85/135/57 81/138/57
f 84/140/58 82/142/58 86/136/58
o Wardrobe_Bedroom_1
v 8.732092 0.000000 -22.817171
v 8.732092 2.400000 -22.817171
v 8.732092 0.000000 -26.385828
v 8.732092 2.400000 -26.385828
v 12.300751 0.000000 -22.817171
v 12.300751 2.400000 -22.817171
v 12.300751 0.000000 -26.385828
v 12.300751 2.400000 -26.385828
vn -1.0000 -0.0000 -0.0000
vn -0.0000 -0.0000 -1.0000
vn 1.0000 -0.0000 -0.0000
vn -0.0000 -0.0000 1.0000
vn -0.0000 -1.0000 -0.0000
vn -0.0000 1.0000 -0.0000
vt 0.625000 0.000000
vt 0.375000 0.250000
vt 0.375000 0.000000
vt 0.625000 0.250000
vt 0.375000 0.500000
vt 0.625000 0.500000
vt 0.375000 0.750000
vt 0.625000 0.750000
vt 0.375000 1.000000
vt 0.125000 0.750000
vt 0.125000 0.500000
vt 0.875000 0.500000
vt 0.625000 1.000000
vt 0.875000 0.750000
s 0
usemtl FurnitureWood
f 90/143/59 91/144/59 89/145/59
f 92/146/60 95/147/60 91/144/60
f 96/148/61 93/149/61 95/147/61
f 94/150/62 89/151/62 93/149/62
f 95/147/63 89/152/63 91/153/63
f 92/154/64 94/150/64 96/148/64
f 90/143/59 92/146/59 91/144/59
f 92/146/60 96/148/60 95/147/60
f 96/148/61 94/150/61 93/149/61
f 94/150/62 90/155/62 89/151/62
f 95/147/63 93/149/63 89/152/63
f 92/154/64 90/156/64 94/150/64
o Floor_Bedroom_2
v 16.869410 0.050000 -19.248514
v 22.817171 0.050000 -19.248514
v 16.869410 0.050000 -25.196276
v 22.817171 0.050000 -25.196276
vn -0.0000 1.0000 -0.0000
vt 1.000000 0.000000
vt 0.000000 1.000000
vt 0.000000 0.000000
vt 1.000000 1.000000
s 0
usemtl FloorWood
f 98/157/65 99/158/65 97/159/65
f 98/157/65 100/160/65 99/158/65
o Bed_Bedroom_2
v 15.085079 0.000000 -16.274632
v 15.085079 1.000000 -16.274632
v 15.085079 0.000000 -23.411949
v 15.085079 1.000000 -23.411949
v 24.601501 0.000000 -16.274632
v 24.601501 1.000000 -16.274632
v 24.601501 0.000000 -23.411949
v 24.601501 1.000000 -23.411949
vn -1.0000 -0.0000 -0.0000
vn -0.0000 -0.0000 -1.0000
vn 1.0000 -0.0000 -0.0000
vn -0.0000 -0.0000 1.0000
vn -0.0000 -1.0000 -0.0000
vn -0.0000 1.0000 -0.0000
vt 0.625000 0.000000
vt 0.375000 0.250000
vt 0.375000 0.000000
vt 0.625000 0.250000
vt 0.375000 0.500000
vt 0.625000 0.500000
vt 0.375000 0.750000
vt 0.625000 0.750000
vt 0.375000 1.000000
vt 0.125000 0.750000
vt 0.125000 0.500000
vt 0.875000 0.500000
vt 0.625000 1.000000
vt 0.875000 0.750000
s 0
usemtl FabricBlue
f 102/161/66 103/162/66 101/163/66
f 104/164/67 107/165/67 103/162/67
f 108/166/68 105/167/68 107/165/68
f 106/168/69 101/169/69 105/167/69
f 107/165/70 101/170/70 103/171/70
f 104/172/71 106/168/71 108/166/71
f 102/161/66 104/164/66 103/162/66
f 104/164/67 108/166/67 107/165/67
f 108/166/68 106/168/68 105/167/68
f 106/168/69 102/173/69 101/169/69
f 107/165/70 105/167/70 101/170/70
f 104/172/71 102/174/71 106/168/71
o Wardrobe_Bedroom_2
v 21.627619 0.000000 -22.817171
v 21.627619 2.400000 -22.817171
v 21.627619 0.000000 -26.385828
v 21.627619 2.400000 -26.385828
v 25.196276 0.000000 -22.817171
v 25.196276 2.400000 -22.817171
v 25.196276 0.000000 -26.385828
v 25.196276 2.400000 -26.385828
vn -1.0000 -0.0000 -0.0000
vn -0.0000 -0.0000 -1.0000
vn 1.0000 -0.0000 -0.0000
vn -0.0000 -0.0000 1.0000
vn -0.0000 -1.0000 -0.0000
vn -0.0000 1.0000 -0.0000
vt 0.625000 0.000000
vt 0.375000 0.250000
vt 0.375000 0.000000
vt 0.625000 0.250000
vt 0.375000 0.500000
vt 0.625000 0.500000
vt 0.375000 0.750000
vt 0.625000 0.750000
vt 0.375000 1.000000
vt 0.125000 0.750000
vt 0.125000 0.500000
vt 0.875000 0.500000
vt 0.625000 1.000000
vt 0.875000 0.750000
s 0
usemtl FurnitureWood
f 110/175/72 111/176/72 109/177/72
f 112/178/73 115/179/73 111/176/73
f 116/180/74 113/181/74 115/179/74
f 114/182/75 109/183/75 113/181/75
f 115/179/76 109/184/76 111/185/76
f 112/186/77 114/182/77 116/180/77
f 110/175/72 112/178/72 111/176/72
f 112/178/73 116/180/73 115/179/73
f 116/180/74 114/182/74 113/181/74
f 114/182/75 110/187/75 109/183/75
f 115/179/76 113/181/76 109/184/76
f 112/186/77 110/188/77 114/182/77
o Floor_Bedroom_3
v 3.973881 0.050000 -32.144039
v 9.921644 0.050000 -32.144039
v 3.973881 0.050000 -38.091801
v 9.921644 0.050000 -38.091801
vn -0.0000 1.0000 -0.0000
vt 1.000000 0.000000
vt 0.000000 1.000000
vt 0.000000 0.000000
vt 1.000000 1.000000
s 0
usemtl FloorWood
f 118/189/78 119/190/78 117/191/78
f 118/189/78 120/192/78 119/190/78
o Bed_Bedroom_3
v 2.189552 0.000000 -29.170158
v 2.189552 1.000000 -29.170158
v 2.189552 0.000000 -36.307472
v 2.189552 1.000000 -36.307472
v 11.705974 0.000000 -29.170158
v 11.705974 1.000000 -29.170158
v 11.705974 0.000000 -36.307472
v 11.705974 1.000000 -36.307472
vn -1.0000 -0.0000 -0.0000
vn -0.0000 -0.0000 -1.0000
vn 1.0000 -0.0000 -0.0000
vn -0.0000 -0.0000 1.0000
vn -0.0000 -1.0000 -0.0000
vn -0.0000 1.0000 -0.0000
vt 0.625000 0.000000
vt 0.375000 0.250000
vt 0.375000 0.000000
vt 0.625000 0.250000
vt 0.375000 0.500000
vt 0.625000 0.500000
vt 0.375000 0.750000
vt 0.625000 0.750000
vt 0.375000 1.000000
vt 0.125000 0.750000
vt 0.125000 0.500000
vt 0.875000 0.500000
vt 0.625000 1.000000
vt 0.875000 0.750000
s 0
usemtl FabricBlue
f 122/193/79 123/194/79 121/195/79
f 124/196/80 127/197/80 123/194/80
f 128/198/81 125/199/81 127/197/81
f 126/200/82 121/201/82 125/199/82
f 127/197/83 121/202/83 123/203/83
f 124/204/84 126/200/84 128/198/84
f 122/193/79 124/196/79 123/194/79
f 124/196/80 128/198/80 127/197/80
f 128/198/81 126/200/81 125/199/81
f 126/200/82 122/205/82 121/201/82
f 127/197/83 125/199/83 121/202/83
f 124/204/84 122/206/84 126/200/84
o Wardrobe_Bedroom_3
v 8.732092 0.000000 -35.712700
v 8.732092 2.400000 -35.712700
v 8.732092 0.000000 -39.281357
v 8.732092 2.400000 -39.281357
v 12.300751 0.000000 -35.712700
v 12.300751 2.400000 -35.712700
v 12.300751 0.000000 -39.281357
v 12.300751 2.400000 -39.281357
vn -1.0000 -0.0000 -0.0000
vn -0.0000 -0.0000 -1.0000
vn 1.0000 -0.0000 -0.0000
vn -0.0000 -0.0000 1.0000
vn -0.0000 -1.0000 -0.0000
vn -0.0000 1.0000 -0.0000
vt 0.625000 0.000000
vt 0.375000 0.250000
vt 0.375000 0.000000
vt 0.625000 0.250000
vt 0.375000 0.500000
vt 0.625000 0.500000
vt 0.375000 0.750000
vt 0.625000 0.750000
vt 0.375000 1.000000
vt 0.125000 0.750000
vt 0.125000 0.500000
vt 0.875000 0.500000
vt 0.625000 1.000000
vt 0.875000 0.750000
s 0
usemtl FurnitureWood
f 130/207/85 131/208/85 129/209/85
f 132/210/86 135/211/86 131/208/86
f 136/212/87 133/213/87 135/211/87
f 134/214/88 129/215/88 133/213/88
f 135/211/89 129/216/89 131/217/89
f 132/218/90 134/214/90 136/212/90
f 130/207/85 132/210/85 131/208/85
f 132/210/86 136/212/86 135/211/86
f 136/212/87 134/214/87 133/213/87
f 134/214/88 130/219/88 129/215/88
f 135/211/89 133/213/89 129/216/89
f 132/218/90 130/220/90 134/214/90
o Floor_Bathroom_1
v 15.712597 0.050000 -30.987230
v 19.346741 0.050000 -30.987230
v 15.712597 0.050000 -34.621372
v 19.346741 0.050000 -34.621372
vn -0.0000 1.0000 -0.0000
vt 1.000000 0.000000
vt 0.000000 1.000000
vt 0.000000 0.000000
vt 1.000000 1.000000
s 0
usemtl CeramicWhite
f 138/221/91 139/222/91 137/223/91
f 138/221/91 140/224/91 139/222/91
o Toilet_Bathroom_1
v 17.893085 0.000000 -32.804298
v 17.893085 0.800000 -32.804298
v 17.893085 0.000000 -35.711617
v 17.893085 0.800000 -35.711617
v 20.073570 0.000000 -32.804298
v 20.073570 0.800000 -32.804298
v 20.073570 0.000000 -35.711617
v 20.073570 0.800000 -35.711617
vn -1.0000 -0.0000 -0.0000
vn -0.0000 -0.0000 -1.0000
vn 1.0000 -0.0000 -0.0000
vn -0.0000 -0.0000 1.0000
vn -0.0000 -1.0000 -0.0000
vn -0.0000 1.0000 -0.0000
vt 0.625000 0.000000
vt 0.375000 0.250000
vt 0.375000 0.000000
vt 0.625000 0.250000
vt 0.375000 0.500000
vt 0.625000 0.500000
vt 0.375000 0.750000
vt 0.625000 0.750000
vt 0.375000 1.000000
vt 0.125000 0.750000
vt 0.125000 0.500000
vt 0.875000 0.500000
vt 0.625000 1.000000
vt 0.875000 0.750000
s 0
usemtl CeramicWhite
f 142/225/92 143/226/92 141/227/92
f 144/228/93 147/229/93 143/226/93
f 148/230/94 145/231/94 147/229/94
f 146/232/95 141/233/95 145/231/95
f 147/229/96 141/234/96 143/235/96
f 144/236/97 146/232/97 148/230/97
f 142/225/92 144/228/92 143/226/92
f 144/228/93 148/230/93 147/229/93
f 148/230/94 146/232/94 145/231/94
f 146/232/95 142/237/95 141/233/95
f 147/229/96 145/231/96 141/234/96
f 144/236/97 142/238/97 146/232/97
o Sink_Bathroom_1
v 14.622355 0.000000 -30.260401
v 14.622355 1.600000 -30.260401
v 14.622355 0.000000 -32.440887
v 14.622355 1.600000 -32.440887
v 17.529669 0.000000 -30.260401
v 17.529669 1.600000 -30.260401
v 17.529669 0.000000 -32.440887
v 17.529669 1.600000 -32.440887
vn -1.0000 -0.0000 -0.0000
vn -0.0000 -0.0000 -1.0000
vn 1.0000 -0.0000 -0.0000
vn -0.0000 -0.0000 1.0000
vn -0.0000 -1.0000 -0.0000
vn -0.0000 1.0000 -0.0000
vt 0.625000 0.000000
vt 0.375000 0.250000
vt 0.375000 0.000000
vt 0.625000 0.250000
vt 0.375000 0.500000
vt 0.625000 0.500000
vt 0.375000 0.750000
vt 0.625000 0.750000
vt 0.375000 1.000000
vt 0.125000 0.750000
vt 0.125000 0.500000
vt 0.875000 0.500000
vt 0.625000 1.000000
vt 0.875000 0.750000
s 0
usemtl CeramicWhite
f 150/239/98 151/240/98 149/241/98
f 152/242/99 155/243/99 151/240/99
f 156/244/100 153/245/100 155/243/100
f 154/246/101 149/247/101 153/245/101
f 155/243/102 149/248/102 151/249/102
f 152/250/103 154/246/103 156/244/103
f 150/239/98 152/242/98 151/240/98
f 152/242/99 156/244/99 155/243/99
f 156/244/100 154/246/100 153/245/100
f 154/246/101 150/251/101 149/247/101
f 155/243/102 153/245/102 149/248/102
f 152/250/103 150/252/103 154/246/103
o Floor_Bathroom_2
v 2.817072 0.050000 -43.882759
v 6.451215 0.050000 -43.882759
v 2.817072 0.050000 -47.516899
v 6.451215 0.050000 -47.516899
vn -0.0000 1.0000 -0.0000
vt 1.000000 0.000000
vt 0.000000 1.000000
vt 0.000000 0.000000
vt 1.000000 1.000000
s 0
usemtl CeramicWhite
f 158/253/104 159/254/104 157/255/104
f 158/253/104 160/256/104 159/254/104
o Toilet_Bathroom_2
v 4.997558 0.000000 -45.699825
v 4.997558 0.800000 -45.699825
v 4.997558 0.000000 -48.607143
v 4.997558 0.800000 -48.607143
v 7.178043 0.000000 -45.699825
v 7.178043 0.800000 -45.699825
v 7.178043 0.000000 -48.607143
v 7.178043 0.800000 -48.607143
vn -1.0000 -0.0000 -0.0000
vn -0.0000 -0.0000 -1.0000
vn 1.0000 -0.0000 -0.0000
vn -0.0000 -0.0000 1.0000
vn -0.0000 -1.0000 -0.0000
vn -0.0000 1.0000 -0.0000
vt 0.625000 0.000000
vt 0.375000 0.250000
vt 0.375000 0.000000
vt 0.625000 0.250000
vt 0.375000 0.500000
vt 0.625000 0.500000
vt 0.375000 0.750000
vt 0.625000 0.750000
vt 0.375000 1.000000
vt 0.125000 0.750000
vt 0.125000 0.500000
vt 0.875000 0.500000
vt 0.625000 1.000000
vt 0.875000 0.750000
s 0
usemtl CeramicWhite
f 162/257/105 163/258/105 161/259/105
f 164/260/106 167/261/106 163/258/106
f 168/262/107 165/263/107 167/261/107
f 166/264/108 161/265/108 165/263/108
f 167/261/109 161/266/109 163/267/109
f 164/268/110 166/264/110 168/262/110
f 162/257/105 164/260/105 163/258/105
f 164/260/106 168/262/106 167/261/106
f 168/262/107 166/264/107 165/263/107
f 166/264/108 162/269/108 161/265/108
f 167/261/109 165/263/109 161/266/109
f 164/268/110 162/270/110 166/264/110
o Sink_Bathroom_2
v 1.726829 0.000000 -43.155926
v 1.726829 1.600000 -43.155926
v 1.726829 0.000000 -45.336414
v 1.726829 1.600000 -45.336414
v 4.634143 0.000000 -43.155926
v 4.634143 1.600000 -43.155926
v 4.634143 0.000000 -45.336414
v 4.634143 1.600000 -45.336414
vn -1.0000 -0.0000 -0.0000
vn -0.0000 -0.0000 -1.0000
vn 1.0000 -0.0000 -0.0000
vn -0.0000 -0.0000 1.0000
vn -0.0000 -1.0000 -0.0000
vn -0.0000 1.0000 -0.0000
vt 0.625000 0.000000
vt 0.375000 0.250000
vt 0.375000 0.000000
vt 0.625000 0.250000
vt 0.375000 0.500000
vt 0.625000 0.500000
vt 0.375000 0.750000
vt 0.625000 0.750000
vt 0.375000 1.000000
vt 0.125000 0.750000
vt 0.125000 0.500000
vt 0.875000 0.500000
vt 0.625000 1.000000
vt 0.875000 0.750000
s 0
usemtl CeramicWhite
f 170/271/111 171/272/111 169/273/111
f 172/274/112 175/275/112 171/272/112
f 176/276/113 173/277/113 175/275/113
f 174/278/114 169/279/114 173/277/114
f 175/275/115 169/280/115 171/281/115
f 172/282/116 174/278/116 176/276/116
f 170/271/111 172/274/111 171/272/111
f 172/274/112 176/276/112 175/275/112
f 176/276/113 174/278/113 173/277/113
f 174/278/114 170/283/114 169/279/114
f 175/275/115 173/277/115 169/280/115
f 172/282/116 170/284/116 174/278/116
