# Blender 4.4.3
# www.blender.org
mtllib simple_scene_5c71636f-8c87-4edf-a67f-43799b31c597.mtl
o Floor_Living_Room
v 21.347267 0.000000 -13.865515
v 24.652733 0.000000 -13.865515
v 21.347267 0.000000 -16.134485
v 24.652733 0.000000 -16.134485
vn -0.0000 1.0000 -0.0000
vt 0.000000 0.000000
vt 1.000000 0.000000
vt 1.000000 1.000000
vt 0.000000 1.000000
s 0
usemtl Floor
f 1/1/1 2/2/1 4/3/1 3/4/1
o Ceiling_Living_Room
v 21.347267 9.000000 -13.865515
v 24.652733 9.000000 -13.865515
v 21.347267 9.000000 -16.134485
v 24.652733 9.000000 -16.134485
vn -0.0000 1.0000 -0.0000
vt 0.000000 0.000000
vt 1.000000 0.000000
vt 1.000000 1.000000
vt 0.000000 1.000000
s 0
usemtl Ceiling
f 5/5/2 6/6/2 8/7/2 7/8/2
o Wall_Living_Room_0
v 19.644535 2.250000 -12.731030
v 19.644535 6.750000 -12.731030
v 19.644535 2.250000 -17.268970
v 19.644535 6.750000 -17.268970
v 19.744534 2.250000 -12.731030
v 19.744534 6.750000 -12.731030
v 19.744534 2.250000 -17.268970
v 19.744534 6.750000 -17.268970
vn -1.0000 -0.0000 -0.0000
vn -0.0000 -0.0000 -1.0000
vn 1.0000 -0.0000 -0.0000
vn -0.0000 -0.0000 1.0000
vn -0.0000 -1.0000 -0.0000
vn -0.0000 1.0000 -0.0000
vt 0.375000 0.000000
vt 0.625000 0.000000
vt 0.625000 0.250000
vt 0.375000 0.250000
vt 0.625000 0.500000
vt 0.375000 0.500000
vt 0.625000 0.750000
vt 0.375000 0.750000
vt 0.625000 1.000000
vt 0.375000 1.000000
vt 0.125000 0.500000
vt 0.125000 0.750000
vt 0.875000 0.500000
vt 0.875000 0.750000
s 0
usemtl Wall
f 9/9/3 10/10/3 12/11/3 11/12/3
f 11/12/4 12/11/4 16/13/4 15/14/4
f 15/14/5 16/13/5 14/15/5 13/16/5
f 13/16/6 14/15/6 10/17/6 9/18/6
f 11/19/7 15/14/7 13/16/7 9/20/7
f 16/13/8 12/21/8 10/22/8 14/15/8
o Wall_Living_Room_1
v 26.255466 2.250000 -12.731030
v 26.255466 6.750000 -12.731030
v 26.255466 2.250000 -17.268970
v 26.255466 6.750000 -17.268970
v 26.355465 2.250000 -12.731030
v 26.355465 6.750000 -12.731030
v 26.355465 2.250000 -17.268970
v 26.355465 6.750000 -17.268970
vn -1.0000 -0.0000 -0.0000
vn -0.0000 -0.0000 -1.0000
vn 1.0000 -0.0000 -0.0000
vn -0.0000 -0.0000 1.0000
vn -0.0000 -1.0000 -0.0000
vn -0.0000 1.0000 -0.0000
vt 0.375000 0.000000
vt 0.625000 0.000000
vt 0.625000 0.250000
vt 0.375000 0.250000
vt 0.625000 0.500000
vt 0.375000 0.500000
vt 0.625000 0.750000
vt 0.375000 0.750000
vt 0.625000 1.000000
vt 0.375000 1.000000
vt 0.125000 0.500000
vt 0.125000 0.750000
vt 0.875000 0.500000
vt 0.875000 0.750000
s 0
usemtl Wall
f 17/23/9 18/24/9 20/25/9 19/26/9
f 19/26/10 20/25/10 24/27/10 23/28/10
f 23/28/11 24/27/11 22/29/11 21/30/11
f 21/30/12 22/29/12 18/31/12 17/32/12
f 19/33/13 23/28/13 21/30/13 17/34/13
f 24/27/14 20/35/14 18/36/14 22/29/14
o Wall_Living_Room_2
v 19.694534 2.250000 -12.681030
v 19.694534 6.750000 -12.681030
v 19.694534 2.250000 -12.781031
v 19.694534 6.750000 -12.781031
v 26.305466 2.250000 -12.681030
v 26.305466 6.750000 -12.681030
v 26.305466 2.250000 -12.781031
v 26.305466 6.750000 -12.781031
vn -1.0000 -0.0000 -0.0000
vn -0.0000 -0.0000 -1.0000
vn 1.0000 -0.0000 -0.0000
vn -0.0000 -0.0000 1.0000
vn -0.0000 -1.0000 -0.0000
vn -0.0000 1.0000 -0.0000
vt 0.375000 0.000000
vt 0.625000 0.000000
vt 0.625000 0.250000
vt 0.375000 0.250000
vt 0.625000 0.500000
vt 0.375000 0.500000
vt 0.625000 0.750000
vt 0.375000 0.750000
vt 0.625000 1.000000
vt 0.375000 1.000000
vt 0.125000 0.500000
vt 0.125000 0.750000
vt 0.875000 0.500000
vt 0.875000 0.750000
s 0
usemtl Wall
f 25/37/15 26/38/15 28/39/15 27/40/15
f 27/40/16 28/39/16 32/41/16 31/42/16
f 31/42/17 32/41/17 30/43/17 29/44/17
f 29/44/18 30/43/18 26/45/18 25/46/18
f 27/47/19 31/42/19 29/44/19 25/48/19
f 32/41/20 28/49/20 26/50/20 30/43/20
o Wall_Living_Room_3
v 19.694534 2.250000 -17.218971
v 19.694534 6.750000 -17.218971
v 19.694534 2.250000 -17.318970
v 19.694534 6.750000 -17.318970
v 26.305466 2.250000 -17.218971
v 26.305466 6.750000 -17.218971
v 26.305466 2.250000 -17.318970
v 26.305466 6.750000 -17.318970
vn -1.0000 -0.0000 -0.0000
vn -0.0000 -0.0000 -1.0000
vn 1.0000 -0.0000 -0.0000
vn -0.0000 -0.0000 1.0000
vn -0.0000 -1.0000 -0.0000
vn -0.0000 1.0000 -0.0000
vt 0.375000 0.000000
vt 0.625000 0.000000
vt 0.625000 0.250000
vt 0.375000 0.250000
vt 0.625000 0.500000
vt 0.375000 0.500000
vt 0.625000 0.750000
vt 0.375000 0.750000
vt 0.625000 1.000000
vt 0.375000 1.000000
vt 0.125000 0.500000
vt 0.125000 0.750000
vt 0.875000 0.500000
vt 0.875000 0.750000
s 0
usemtl Wall
f 33/51/21 34/52/21 36/53/21 35/54/21
f 35/54/22 36/53/22 40/55/22 39/56/22
f 39/56/23 40/55/23 38/57/23 37/58/23
f 37/58/24 38/57/24 34/59/24 33/60/24
f 35/61/25 39/56/25 37/58/25 33/62/25
f 40/55/26 36/63/26 34/64/26 38/57/26
o Sofa_Living_Room
v 22.250000 0.000000 -14.600000
v 22.250000 0.800000 -14.600000
v 22.250000 0.000000 -15.400000
v 22.250000 0.800000 -15.400000
v 23.750000 0.000000 -14.600000
v 23.750000 0.800000 -14.600000
v 23.750000 0.000000 -15.400000
v 23.750000 0.800000 -15.400000
vn -1.0000 -0.0000 -0.0000
vn -0.0000 -0.0000 -1.0000
vn 1.0000 -0.0000 -0.0000
vn -0.0000 -0.0000 1.0000
vn -0.0000 -1.0000 -0.0000
vn -0.0000 1.0000 -0.0000
vt 0.375000 0.000000
vt 0.625000 0.000000
vt 0.625000 0.250000
vt 0.375000 0.250000
vt 0.625000 0.500000
vt 0.375000 0.500000
vt 0.625000 0.750000
vt 0.375000 0.750000
vt 0.625000 1.000000
vt 0.375000 1.000000
vt 0.125000 0.500000
vt 0.125000 0.750000
vt 0.875000 0.500000
vt 0.875000 0.750000
s 0
usemtl Furniture
f 41/65/27 42/66/27 44/67/27 43/68/27
f 43/68/28 44/67/28 48/69/28 47/70/28
f 47/70/29 48/69/29 46/71/29 45/72/29
f 45/72/30 46/71/30 42/73/30 41/74/30
f 43/75/31 47/70/31 45/72/31 41/76/31
f 48/69/32 44/77/32 42/78/32 46/71/32
o Floor_Kitchen
v 7.874238 0.000000 -23.757408
v 11.125762 0.000000 -23.757408
v 7.874238 0.000000 -25.295151
v 11.125762 0.000000 -25.295151
vn -0.0000 1.0000 -0.0000
vt 0.000000 0.000000
vt 1.000000 0.000000
vt 1.000000 1.000000
vt 0.000000 1.000000
s 0
usemtl Floor
f 49/79/33 50/80/33 52/81/33 51/82/33
o Ceiling_Kitchen
v 7.874238 9.000000 -23.757408
v 11.125762 9.000000 -23.757408
v 7.874238 9.000000 -25.295151
v 11.125762 9.000000 -25.295151
vn -0.0000 1.0000 -0.0000
vt 0.000000 0.000000
vt 1.000000 0.000000
vt 1.000000 1.000000
vt 0.000000 1.000000
s 0
usemtl Ceiling
f 53/83/34 54/84/34 56/85/34 55/86/34
o Wall_Kitchen_0
v 6.198476 2.250000 -22.988539
v 6.198476 6.750000 -22.988539
v 6.198476 2.250000 -26.064020
v 6.198476 6.750000 -26.064020
v 6.298477 2.250000 -22.988539
v 6.298477 6.750000 -22.988539
v 6.298477 2.250000 -26.064020
v 6.298477 6.750000 -26.064020
vn -1.0000 -0.0000 -0.0000
vn -0.0000 -0.0000 -1.0000
vn 1.0000 -0.0000 -0.0000
vn -0.0000 -0.0000 1.0000
vn -0.0000 -1.0000 -0.0000
vn -0.0000 1.0000 -0.0000
vt 0.375000 0.000000
vt 0.625000 0.000000
vt 0.625000 0.250000
vt 0.375000 0.250000
vt 0.625000 0.500000
vt 0.375000 0.500000
vt 0.625000 0.750000
vt 0.375000 0.750000
vt 0.625000 1.000000
vt 0.375000 1.000000
vt 0.125000 0.500000
vt 0.125000 0.750000
vt 0.875000 0.500000
vt 0.875000 0.750000
s 0
usemtl Wall
f 57/87/35 58/88/35 60/89/35 59/90/35
f 59/90/36 60/89/36 64/91/36 63/92/36
f 63/92/37 64/91/37 62/93/37 61/94/37
f 61/94/38 62/93/38 58/95/38 57/96/38
f 59/97/39 63/92/39 61/94/39 57/98/39
f 64/91/40 60/99/40 58/100/40 62/93/40
o Wall_Kitchen_1
v 12.701523 2.250000 -22.988539
v 12.701523 6.750000 -22.988539
v 12.701523 2.250000 -26.064020
v 12.701523 6.750000 -26.064020
v 12.801523 2.250000 -22.988539
v 12.801523 6.750000 -22.988539
v 12.801523 2.250000 -26.064020
v 12.801523 6.750000 -26.064020
vn -1.0000 -0.0000 -0.0000
vn -0.0000 -0.0000 -1.0000
vn 1.0000 -0.0000 -0.0000
vn -0.0000 -0.0000 1.0000
vn -0.0000 -1.0000 -0.0000
vn -0.0000 1.0000 -0.0000
vt 0.375000 0.000000
vt 0.625000 0.000000
vt 0.625000 0.250000
vt 0.375000 0.250000
vt 0.625000 0.500000
vt 0.375000 0.500000
vt 0.625000 0.750000
vt 0.375000 0.750000
vt 0.625000 1.000000
vt 0.375000 1.000000
vt 0.125000 0.500000
vt 0.125000 0.750000
vt 0.875000 0.500000
vt 0.875000 0.750000
s 0
usemtl Wall
f 65/101/41 66/102/41 68/103/41 67/104/41
f 67/104/42 68/103/42 72/105/42 71/106/42
f 71/106/43 72/105/43 70/107/43 69/108/43
f 69/108/44 70/107/44 66/109/44 65/110/44
f 67/111/45 71/106/45 69/108/45 65/112/45
f 72/105/46 68/113/46 66/114/46 70/107/46
o Wall_Kitchen_2
v 6.248477 2.250000 -22.938540
v 6.248477 6.750000 -22.938540
v 6.248477 2.250000 -23.038538
v 6.248477 6.750000 -23.038538
v 12.751524 2.250000 -22.938540
v 12.751524 6.750000 -22.938540
v 12.751524 2.250000 -23.038538
v 12.751524 6.750000 -23.038538
vn -1.0000 -0.0000 -0.0000
vn -0.0000 -0.0000 -1.0000
vn 1.0000 -0.0000 -0.0000
vn -0.0000 -0.0000 1.0000
vn -0.0000 -1.0000 -0.0000
vn -0.0000 1.0000 -0.0000
vt 0.375000 0.000000
vt 0.625000 0.000000
vt 0.625000 0.250000
vt 0.375000 0.250000
vt 0.625000 0.500000
vt 0.375000 0.500000
vt 0.625000 0.750000
vt 0.375000 0.750000
vt 0.625000 1.000000
vt 0.375000 1.000000
vt 0.125000 0.500000
vt 0.125000 0.750000
vt 0.875000 0.500000
vt 0.875000 0.750000
s 0
usemtl Wall
f 73/115/47 74/116/47 76/117/47 75/118/47
f 75/118/48 76/117/48 80/119/48 79/120/48
f 79/120/49 80/119/49 78/121/49 77/122/49
f 77/122/50 78/121/50 74/123/50 73/124/50
f 75/125/51 79/120/51 77/122/51 73/126/51
f 80/119/52 76/127/52 74/128/52 78/121/52
o Wall_Kitchen_3
v 6.248477 2.250000 -26.014021
v 6.248477 6.750000 -26.014021
v 6.248477 2.250000 -26.114019
v 6.248477 6.750000 -26.114019
v 12.751524 2.250000 -26.014021
v 12.751524 6.750000 -26.014021
v 12.751524 2.250000 -26.114019
v 12.751524 6.750000 -26.114019
vn -1.0000 -0.0000 -0.0000
vn -0.0000 -0.0000 -1.0000
vn 1.0000 -0.0000 -0.0000
vn -0.0000 -0.0000 1.0000
vn -0.0000 -1.0000 -0.0000
vn -0.0000 1.0000 -0.0000
vt 0.375000 0.000000
vt 0.625000 0.000000
vt 0.625000 0.250000
vt 0.375000 0.250000
vt 0.625000 0.500000
vt 0.375000 0.500000
vt 0.625000 0.750000
vt 0.375000 0.750000
vt 0.625000 1.000000
vt 0.375000 1.000000
vt 0.125000 0.500000
vt 0.125000 0.750000
vt 0.875000 0.500000
vt 0.875000 0.750000
s 0
usemtl Wall
f 81/129/53 82/130/53 84/131/53 83/132/53
f 83/132/54 84/131/54 88/133/54 87/134/54
f 87/134/55 88/133/55 86/135/55 85/136/55
f 85/136/56 86/135/56 82/137/56 81/138/56
f 83/139/57 87/134/57 85/136/57 81/140/57
f 88/133/58 84/141/58 82/142/58 86/135/58
